<mxfile host="app.diagrams.net" modified="2021-04-28T09:25:45.505Z" agent="5.0 (Windows NT 10.0; Win64; x64) AppleWebKit/537.36 (KHTML, like Gecko) Chrome/89.0.4389.114 Safari/537.36" etag="GqajDqV3MFgxp-MfEMBH" version="14.6.6" type="github">
  <diagram id="G9eEYE_32F1Lf45cPe6K" name="Page-1">
    <mxGraphModel dx="3761" dy="762" grid="1" gridSize="10" guides="1" tooltips="1" connect="1" arrows="1" fold="1" page="1" pageScale="1" pageWidth="2339" pageHeight="3300" math="0" shadow="0">
      <root>
        <mxCell id="0" />
        <mxCell id="1" parent="0" />
        <mxCell id="Da_kQKlGXjnIWnQLu5Gy-2" value="" style="rounded=1;whiteSpace=wrap;html=1;strokeColor=#666666;fillColor=#f5f5f5;fontColor=#333333;" vertex="1" parent="1">
          <mxGeometry x="-152.5" y="730" width="340" height="169" as="geometry" />
        </mxCell>
        <mxCell id="Da_kQKlGXjnIWnQLu5Gy-3" value="&lt;b&gt;LSTM&lt;/b&gt;" style="ellipse;whiteSpace=wrap;html=1;fillColor=#dae8fc;strokeColor=#6c8ebf;" vertex="1" parent="1">
          <mxGeometry x="-132.5" y="749" width="70" height="40" as="geometry" />
        </mxCell>
        <mxCell id="Da_kQKlGXjnIWnQLu5Gy-4" value="&lt;b&gt;LSTM&lt;/b&gt;" style="ellipse;whiteSpace=wrap;html=1;fillColor=#dae8fc;strokeColor=#6c8ebf;" vertex="1" parent="1">
          <mxGeometry x="-42.5" y="749" width="70" height="40" as="geometry" />
        </mxCell>
        <mxCell id="Da_kQKlGXjnIWnQLu5Gy-5" value="&lt;b&gt;LSTM&lt;/b&gt;" style="ellipse;whiteSpace=wrap;html=1;fillColor=#dae8fc;strokeColor=#6c8ebf;" vertex="1" parent="1">
          <mxGeometry x="97.5" y="749" width="70" height="40" as="geometry" />
        </mxCell>
        <mxCell id="Da_kQKlGXjnIWnQLu5Gy-6" value="" style="endArrow=classic;html=1;exitX=1;exitY=0.5;exitDx=0;exitDy=0;entryX=0;entryY=0.5;entryDx=0;entryDy=0;" edge="1" parent="1" source="Da_kQKlGXjnIWnQLu5Gy-3" target="Da_kQKlGXjnIWnQLu5Gy-4">
          <mxGeometry width="50" height="50" relative="1" as="geometry">
            <mxPoint x="-52.5" y="979" as="sourcePoint" />
            <mxPoint x="-132.5" y="1019" as="targetPoint" />
          </mxGeometry>
        </mxCell>
        <mxCell id="Da_kQKlGXjnIWnQLu5Gy-7" value="" style="endArrow=classic;html=1;exitX=1;exitY=0.5;exitDx=0;exitDy=0;entryX=0.588;entryY=0.231;entryDx=0;entryDy=0;entryPerimeter=0;" edge="1" parent="1" source="Da_kQKlGXjnIWnQLu5Gy-4" target="Da_kQKlGXjnIWnQLu5Gy-2">
          <mxGeometry width="50" height="50" relative="1" as="geometry">
            <mxPoint x="-52.5" y="779" as="sourcePoint" />
            <mxPoint x="-32.5" y="779" as="targetPoint" />
          </mxGeometry>
        </mxCell>
        <mxCell id="Da_kQKlGXjnIWnQLu5Gy-8" value="" style="endArrow=classic;html=1;exitX=1;exitY=0.5;exitDx=0;exitDy=0;entryX=0.588;entryY=0.231;entryDx=0;entryDy=0;entryPerimeter=0;" edge="1" parent="1">
          <mxGeometry width="50" height="50" relative="1" as="geometry">
            <mxPoint x="77.5" y="768.76" as="sourcePoint" />
            <mxPoint x="97.42000000000007" y="768.799" as="targetPoint" />
          </mxGeometry>
        </mxCell>
        <mxCell id="Da_kQKlGXjnIWnQLu5Gy-9" value="..." style="text;html=1;strokeColor=none;fillColor=none;align=center;verticalAlign=middle;whiteSpace=wrap;rounded=0;" vertex="1" parent="1">
          <mxGeometry x="42.5" y="759" width="40" height="20" as="geometry" />
        </mxCell>
        <mxCell id="Da_kQKlGXjnIWnQLu5Gy-10" value="&lt;b&gt;LSTM&lt;/b&gt;" style="ellipse;whiteSpace=wrap;html=1;fillColor=#dae8fc;strokeColor=#6c8ebf;" vertex="1" parent="1">
          <mxGeometry x="-132.5" y="829" width="70" height="40" as="geometry" />
        </mxCell>
        <mxCell id="Da_kQKlGXjnIWnQLu5Gy-11" value="&lt;b&gt;LSTM&lt;/b&gt;" style="ellipse;whiteSpace=wrap;html=1;fillColor=#dae8fc;strokeColor=#6c8ebf;" vertex="1" parent="1">
          <mxGeometry x="-42.5" y="829" width="70" height="40" as="geometry" />
        </mxCell>
        <mxCell id="Da_kQKlGXjnIWnQLu5Gy-12" value="&lt;b&gt;LSTM&lt;/b&gt;" style="ellipse;whiteSpace=wrap;html=1;fillColor=#dae8fc;strokeColor=#6c8ebf;" vertex="1" parent="1">
          <mxGeometry x="97.5" y="829" width="70" height="40" as="geometry" />
        </mxCell>
        <mxCell id="Da_kQKlGXjnIWnQLu5Gy-13" value="" style="endArrow=classic;html=1;exitX=1;exitY=0.5;exitDx=0;exitDy=0;entryX=0.588;entryY=0.231;entryDx=0;entryDy=0;entryPerimeter=0;" edge="1" parent="1" source="Da_kQKlGXjnIWnQLu5Gy-11">
          <mxGeometry width="50" height="50" relative="1" as="geometry">
            <mxPoint x="-52.5" y="859" as="sourcePoint" />
            <mxPoint x="47.42000000000007" y="849.039" as="targetPoint" />
          </mxGeometry>
        </mxCell>
        <mxCell id="Da_kQKlGXjnIWnQLu5Gy-14" value="" style="endArrow=classic;html=1;exitX=1;exitY=0.5;exitDx=0;exitDy=0;entryX=0.588;entryY=0.231;entryDx=0;entryDy=0;entryPerimeter=0;" edge="1" parent="1">
          <mxGeometry width="50" height="50" relative="1" as="geometry">
            <mxPoint x="77.5" y="848.76" as="sourcePoint" />
            <mxPoint x="97.42000000000007" y="848.799" as="targetPoint" />
          </mxGeometry>
        </mxCell>
        <mxCell id="Da_kQKlGXjnIWnQLu5Gy-15" value="..." style="text;html=1;strokeColor=none;fillColor=none;align=center;verticalAlign=middle;whiteSpace=wrap;rounded=0;" vertex="1" parent="1">
          <mxGeometry x="42.5" y="839" width="40" height="20" as="geometry" />
        </mxCell>
        <mxCell id="Da_kQKlGXjnIWnQLu5Gy-16" value="" style="endArrow=classic;html=1;exitX=1;exitY=0.5;exitDx=0;exitDy=0;entryX=0;entryY=0.5;entryDx=0;entryDy=0;" edge="1" parent="1">
          <mxGeometry width="50" height="50" relative="1" as="geometry">
            <mxPoint x="-62.5" y="849" as="sourcePoint" />
            <mxPoint x="-42.5" y="849" as="targetPoint" />
          </mxGeometry>
        </mxCell>
        <mxCell id="Da_kQKlGXjnIWnQLu5Gy-17" value="" style="endArrow=classic;html=1;exitX=0.5;exitY=0;exitDx=0;exitDy=0;entryX=0.5;entryY=1;entryDx=0;entryDy=0;" edge="1" parent="1" source="Da_kQKlGXjnIWnQLu5Gy-10" target="Da_kQKlGXjnIWnQLu5Gy-3">
          <mxGeometry width="50" height="50" relative="1" as="geometry">
            <mxPoint x="-107.46000000000004" y="814.26" as="sourcePoint" />
            <mxPoint x="-87.54000000000019" y="814.299" as="targetPoint" />
          </mxGeometry>
        </mxCell>
        <mxCell id="Da_kQKlGXjnIWnQLu5Gy-18" value="" style="endArrow=classic;html=1;exitX=0.5;exitY=0;exitDx=0;exitDy=0;entryX=0.5;entryY=1;entryDx=0;entryDy=0;" edge="1" parent="1">
          <mxGeometry width="50" height="50" relative="1" as="geometry">
            <mxPoint x="-7.739999999999782" y="829" as="sourcePoint" />
            <mxPoint x="-7.739999999999782" y="789" as="targetPoint" />
          </mxGeometry>
        </mxCell>
        <mxCell id="Da_kQKlGXjnIWnQLu5Gy-19" value="" style="endArrow=classic;html=1;exitX=0.5;exitY=0;exitDx=0;exitDy=0;entryX=0.5;entryY=1;entryDx=0;entryDy=0;" edge="1" parent="1">
          <mxGeometry width="50" height="50" relative="1" as="geometry">
            <mxPoint x="132.5" y="829" as="sourcePoint" />
            <mxPoint x="132.5" y="789" as="targetPoint" />
          </mxGeometry>
        </mxCell>
        <mxCell id="Da_kQKlGXjnIWnQLu5Gy-20" value="" style="rounded=1;whiteSpace=wrap;html=1;strokeColor=#666666;fillColor=#f5f5f5;fontColor=#333333;" vertex="1" parent="1">
          <mxGeometry x="222.5" y="730" width="340" height="169" as="geometry" />
        </mxCell>
        <mxCell id="Da_kQKlGXjnIWnQLu5Gy-21" value="&lt;b&gt;LSTM&lt;/b&gt;" style="ellipse;whiteSpace=wrap;html=1;fillColor=#dae8fc;strokeColor=#6c8ebf;" vertex="1" parent="1">
          <mxGeometry x="242.5" y="749" width="70" height="40" as="geometry" />
        </mxCell>
        <mxCell id="Da_kQKlGXjnIWnQLu5Gy-22" value="&lt;b&gt;LSTM&lt;/b&gt;" style="ellipse;whiteSpace=wrap;html=1;fillColor=#dae8fc;strokeColor=#6c8ebf;" vertex="1" parent="1">
          <mxGeometry x="332.5" y="749" width="70" height="40" as="geometry" />
        </mxCell>
        <mxCell id="Da_kQKlGXjnIWnQLu5Gy-23" value="&lt;b&gt;LSTM&lt;/b&gt;" style="ellipse;whiteSpace=wrap;html=1;fillColor=#dae8fc;strokeColor=#6c8ebf;" vertex="1" parent="1">
          <mxGeometry x="472.5" y="749" width="70" height="40" as="geometry" />
        </mxCell>
        <mxCell id="Da_kQKlGXjnIWnQLu5Gy-24" value="..." style="text;html=1;strokeColor=none;fillColor=none;align=center;verticalAlign=middle;whiteSpace=wrap;rounded=0;" vertex="1" parent="1">
          <mxGeometry x="417.5" y="759" width="40" height="20" as="geometry" />
        </mxCell>
        <mxCell id="Da_kQKlGXjnIWnQLu5Gy-25" value="&lt;b&gt;LSTM&lt;/b&gt;" style="ellipse;whiteSpace=wrap;html=1;fillColor=#dae8fc;strokeColor=#6c8ebf;" vertex="1" parent="1">
          <mxGeometry x="242.5" y="829" width="70" height="40" as="geometry" />
        </mxCell>
        <mxCell id="Da_kQKlGXjnIWnQLu5Gy-26" value="&lt;b&gt;LSTM&lt;/b&gt;" style="ellipse;whiteSpace=wrap;html=1;fillColor=#dae8fc;strokeColor=#6c8ebf;" vertex="1" parent="1">
          <mxGeometry x="332.5" y="829" width="70" height="40" as="geometry" />
        </mxCell>
        <mxCell id="Da_kQKlGXjnIWnQLu5Gy-27" value="&lt;b&gt;LSTM&lt;/b&gt;" style="ellipse;whiteSpace=wrap;html=1;fillColor=#dae8fc;strokeColor=#6c8ebf;" vertex="1" parent="1">
          <mxGeometry x="472.5" y="829" width="70" height="40" as="geometry" />
        </mxCell>
        <mxCell id="Da_kQKlGXjnIWnQLu5Gy-28" value="..." style="text;html=1;strokeColor=none;fillColor=none;align=center;verticalAlign=middle;whiteSpace=wrap;rounded=0;" vertex="1" parent="1">
          <mxGeometry x="417.5" y="839" width="40" height="20" as="geometry" />
        </mxCell>
        <mxCell id="Da_kQKlGXjnIWnQLu5Gy-29" value="" style="endArrow=classic;html=1;exitX=0.5;exitY=0;exitDx=0;exitDy=0;entryX=0.5;entryY=1;entryDx=0;entryDy=0;" edge="1" parent="1" source="Da_kQKlGXjnIWnQLu5Gy-25" target="Da_kQKlGXjnIWnQLu5Gy-21">
          <mxGeometry width="50" height="50" relative="1" as="geometry">
            <mxPoint x="267.53999999999996" y="814.26" as="sourcePoint" />
            <mxPoint x="287.4599999999998" y="814.299" as="targetPoint" />
          </mxGeometry>
        </mxCell>
        <mxCell id="Da_kQKlGXjnIWnQLu5Gy-30" value="" style="endArrow=classic;html=1;exitX=0.5;exitY=0;exitDx=0;exitDy=0;entryX=0.5;entryY=1;entryDx=0;entryDy=0;" edge="1" parent="1">
          <mxGeometry width="50" height="50" relative="1" as="geometry">
            <mxPoint x="367.2600000000002" y="829" as="sourcePoint" />
            <mxPoint x="367.2600000000002" y="789" as="targetPoint" />
          </mxGeometry>
        </mxCell>
        <mxCell id="Da_kQKlGXjnIWnQLu5Gy-31" value="" style="endArrow=classic;html=1;exitX=0.5;exitY=0;exitDx=0;exitDy=0;entryX=0.5;entryY=1;entryDx=0;entryDy=0;" edge="1" parent="1">
          <mxGeometry width="50" height="50" relative="1" as="geometry">
            <mxPoint x="507.5" y="829" as="sourcePoint" />
            <mxPoint x="507.5" y="789" as="targetPoint" />
          </mxGeometry>
        </mxCell>
        <mxCell id="Da_kQKlGXjnIWnQLu5Gy-32" value="" style="endArrow=classic;html=1;exitX=0;exitY=0.5;exitDx=0;exitDy=0;entryX=1;entryY=0.5;entryDx=0;entryDy=0;" edge="1" parent="1" source="Da_kQKlGXjnIWnQLu5Gy-22" target="Da_kQKlGXjnIWnQLu5Gy-21">
          <mxGeometry width="50" height="50" relative="1" as="geometry">
            <mxPoint x="287.5" y="1009" as="sourcePoint" />
            <mxPoint x="337.5" y="959" as="targetPoint" />
          </mxGeometry>
        </mxCell>
        <mxCell id="Da_kQKlGXjnIWnQLu5Gy-33" value="" style="endArrow=classic;html=1;exitX=0;exitY=0.5;exitDx=0;exitDy=0;entryX=1;entryY=0.5;entryDx=0;entryDy=0;" edge="1" parent="1">
          <mxGeometry width="50" height="50" relative="1" as="geometry">
            <mxPoint x="332.49999999999545" y="848.6600000000001" as="sourcePoint" />
            <mxPoint x="312.49999999999545" y="848.6600000000001" as="targetPoint" />
          </mxGeometry>
        </mxCell>
        <mxCell id="Da_kQKlGXjnIWnQLu5Gy-34" value="" style="endArrow=classic;html=1;exitX=0;exitY=0.5;exitDx=0;exitDy=0;entryX=1;entryY=0.5;entryDx=0;entryDy=0;" edge="1" parent="1">
          <mxGeometry width="50" height="50" relative="1" as="geometry">
            <mxPoint x="422.49999999999545" y="768.6600000000001" as="sourcePoint" />
            <mxPoint x="402.49999999999545" y="768.6600000000001" as="targetPoint" />
          </mxGeometry>
        </mxCell>
        <mxCell id="Da_kQKlGXjnIWnQLu5Gy-35" value="" style="endArrow=classic;html=1;exitX=0;exitY=0.5;exitDx=0;exitDy=0;entryX=1;entryY=0.5;entryDx=0;entryDy=0;" edge="1" parent="1">
          <mxGeometry width="50" height="50" relative="1" as="geometry">
            <mxPoint x="422.49999999999545" y="849" as="sourcePoint" />
            <mxPoint x="402.49999999999545" y="849" as="targetPoint" />
          </mxGeometry>
        </mxCell>
        <mxCell id="Da_kQKlGXjnIWnQLu5Gy-36" value="" style="endArrow=classic;html=1;exitX=0;exitY=0.5;exitDx=0;exitDy=0;entryX=1;entryY=0.5;entryDx=0;entryDy=0;" edge="1" parent="1">
          <mxGeometry width="50" height="50" relative="1" as="geometry">
            <mxPoint x="472.49999999999545" y="768.6600000000001" as="sourcePoint" />
            <mxPoint x="452.49999999999545" y="768.6600000000001" as="targetPoint" />
          </mxGeometry>
        </mxCell>
        <mxCell id="Da_kQKlGXjnIWnQLu5Gy-37" value="" style="endArrow=classic;html=1;exitX=0;exitY=0.5;exitDx=0;exitDy=0;entryX=1;entryY=0.5;entryDx=0;entryDy=0;" edge="1" parent="1">
          <mxGeometry width="50" height="50" relative="1" as="geometry">
            <mxPoint x="472.49999999999545" y="849" as="sourcePoint" />
            <mxPoint x="452.49999999999545" y="849" as="targetPoint" />
          </mxGeometry>
        </mxCell>
        <mxCell id="Da_kQKlGXjnIWnQLu5Gy-38" value="" style="endArrow=classic;html=1;strokeColor=#000000;entryX=0.5;entryY=1;entryDx=0;entryDy=0;exitX=0.5;exitY=0;exitDx=0;exitDy=0;" edge="1" parent="1" source="Da_kQKlGXjnIWnQLu5Gy-51" target="Da_kQKlGXjnIWnQLu5Gy-10">
          <mxGeometry width="50" height="50" relative="1" as="geometry">
            <mxPoint x="152.5" y="940" as="sourcePoint" />
            <mxPoint x="-70" y="1020" as="targetPoint" />
          </mxGeometry>
        </mxCell>
        <mxCell id="Da_kQKlGXjnIWnQLu5Gy-39" value="" style="endArrow=classic;html=1;strokeColor=#000000;entryX=0.5;entryY=1;entryDx=0;entryDy=0;exitX=0.5;exitY=0;exitDx=0;exitDy=0;" edge="1" parent="1" source="Da_kQKlGXjnIWnQLu5Gy-52" target="Da_kQKlGXjnIWnQLu5Gy-11">
          <mxGeometry width="50" height="50" relative="1" as="geometry">
            <mxPoint x="210" y="940" as="sourcePoint" />
            <mxPoint x="-50" y="970" as="targetPoint" />
          </mxGeometry>
        </mxCell>
        <mxCell id="Da_kQKlGXjnIWnQLu5Gy-40" value="" style="endArrow=classic;html=1;strokeColor=#000000;entryX=0.5;entryY=1;entryDx=0;entryDy=0;exitX=0.5;exitY=0;exitDx=0;exitDy=0;" edge="1" parent="1" source="Da_kQKlGXjnIWnQLu5Gy-54" target="Da_kQKlGXjnIWnQLu5Gy-12">
          <mxGeometry width="50" height="50" relative="1" as="geometry">
            <mxPoint x="218.75" y="940" as="sourcePoint" />
            <mxPoint x="-20" y="960" as="targetPoint" />
          </mxGeometry>
        </mxCell>
        <mxCell id="Da_kQKlGXjnIWnQLu5Gy-41" value="" style="endArrow=classic;html=1;strokeColor=#000000;entryX=0.5;entryY=1;entryDx=0;entryDy=0;exitX=0.5;exitY=0;exitDx=0;exitDy=0;" edge="1" parent="1" source="Da_kQKlGXjnIWnQLu5Gy-51" target="Da_kQKlGXjnIWnQLu5Gy-25">
          <mxGeometry width="50" height="50" relative="1" as="geometry">
            <mxPoint x="152.5" y="940" as="sourcePoint" />
            <mxPoint x="-10" y="980" as="targetPoint" />
          </mxGeometry>
        </mxCell>
        <mxCell id="Da_kQKlGXjnIWnQLu5Gy-42" value="" style="endArrow=classic;html=1;strokeColor=#000000;entryX=0.5;entryY=1;entryDx=0;entryDy=0;exitX=0.5;exitY=0;exitDx=0;exitDy=0;" edge="1" parent="1" source="Da_kQKlGXjnIWnQLu5Gy-52" target="Da_kQKlGXjnIWnQLu5Gy-26">
          <mxGeometry width="50" height="50" relative="1" as="geometry">
            <mxPoint x="210" y="940" as="sourcePoint" />
            <mxPoint x="-30" y="960" as="targetPoint" />
          </mxGeometry>
        </mxCell>
        <mxCell id="Da_kQKlGXjnIWnQLu5Gy-43" value="" style="endArrow=classic;html=1;strokeColor=#000000;entryX=0.5;entryY=1;entryDx=0;entryDy=0;exitX=0.5;exitY=0;exitDx=0;exitDy=0;" edge="1" parent="1" source="Da_kQKlGXjnIWnQLu5Gy-54" target="Da_kQKlGXjnIWnQLu5Gy-27">
          <mxGeometry width="50" height="50" relative="1" as="geometry">
            <mxPoint x="218.75" y="940" as="sourcePoint" />
            <mxPoint x="-40" y="980" as="targetPoint" />
          </mxGeometry>
        </mxCell>
        <mxCell id="Da_kQKlGXjnIWnQLu5Gy-45" value="" style="endArrow=classic;html=1;strokeColor=#000000;entryX=0.5;entryY=1;entryDx=0;entryDy=0;exitX=0.5;exitY=0;exitDx=0;exitDy=0;" edge="1" parent="1" source="Da_kQKlGXjnIWnQLu5Gy-3" target="Da_kQKlGXjnIWnQLu5Gy-57">
          <mxGeometry width="50" height="50" relative="1" as="geometry">
            <mxPoint x="-280" y="720" as="sourcePoint" />
            <mxPoint x="147.5" y="675" as="targetPoint" />
          </mxGeometry>
        </mxCell>
        <mxCell id="Da_kQKlGXjnIWnQLu5Gy-46" value="" style="endArrow=classic;html=1;strokeColor=#000000;exitX=0.5;exitY=0;exitDx=0;exitDy=0;entryX=0.5;entryY=1;entryDx=0;entryDy=0;" edge="1" parent="1" source="Da_kQKlGXjnIWnQLu5Gy-21" target="Da_kQKlGXjnIWnQLu5Gy-57">
          <mxGeometry width="50" height="50" relative="1" as="geometry">
            <mxPoint x="-170" y="720" as="sourcePoint" />
            <mxPoint x="147.5" y="675" as="targetPoint" />
          </mxGeometry>
        </mxCell>
        <mxCell id="Da_kQKlGXjnIWnQLu5Gy-47" value="" style="endArrow=classic;html=1;strokeColor=#000000;entryX=0.5;entryY=1;entryDx=0;entryDy=0;exitX=0.5;exitY=0;exitDx=0;exitDy=0;" edge="1" parent="1" source="Da_kQKlGXjnIWnQLu5Gy-4" target="Da_kQKlGXjnIWnQLu5Gy-58">
          <mxGeometry width="50" height="50" relative="1" as="geometry">
            <mxPoint x="-100" y="710" as="sourcePoint" />
            <mxPoint x="205" y="675" as="targetPoint" />
          </mxGeometry>
        </mxCell>
        <mxCell id="Da_kQKlGXjnIWnQLu5Gy-48" value="" style="endArrow=classic;html=1;strokeColor=#000000;entryX=0.5;entryY=1;entryDx=0;entryDy=0;exitX=0.5;exitY=0;exitDx=0;exitDy=0;" edge="1" parent="1" source="Da_kQKlGXjnIWnQLu5Gy-22" target="Da_kQKlGXjnIWnQLu5Gy-58">
          <mxGeometry width="50" height="50" relative="1" as="geometry">
            <mxPoint x="-60" y="710" as="sourcePoint" />
            <mxPoint x="205" y="675" as="targetPoint" />
          </mxGeometry>
        </mxCell>
        <mxCell id="Da_kQKlGXjnIWnQLu5Gy-49" value="" style="endArrow=classic;html=1;strokeColor=#000000;entryX=0.5;entryY=1;entryDx=0;entryDy=0;exitX=0.5;exitY=0;exitDx=0;exitDy=0;" edge="1" parent="1" source="Da_kQKlGXjnIWnQLu5Gy-5" target="Da_kQKlGXjnIWnQLu5Gy-59">
          <mxGeometry width="50" height="50" relative="1" as="geometry">
            <mxPoint x="-60" y="700" as="sourcePoint" />
            <mxPoint x="262.5" y="675" as="targetPoint" />
          </mxGeometry>
        </mxCell>
        <mxCell id="Da_kQKlGXjnIWnQLu5Gy-50" value="" style="endArrow=classic;html=1;strokeColor=#000000;entryX=0.5;entryY=1;entryDx=0;entryDy=0;exitX=0.5;exitY=0;exitDx=0;exitDy=0;" edge="1" parent="1" source="Da_kQKlGXjnIWnQLu5Gy-23" target="Da_kQKlGXjnIWnQLu5Gy-59">
          <mxGeometry width="50" height="50" relative="1" as="geometry">
            <mxPoint x="-30" y="670" as="sourcePoint" />
            <mxPoint x="262.5" y="675" as="targetPoint" />
          </mxGeometry>
        </mxCell>
        <mxCell id="Da_kQKlGXjnIWnQLu5Gy-51" value="&lt;font style=&quot;font-size: 15px&quot;&gt;&lt;b&gt;E&lt;sub&gt;1&lt;/sub&gt;&lt;/b&gt;&lt;/font&gt;" style="rounded=1;whiteSpace=wrap;html=1;fillColor=#d5e8d4;strokeColor=#82b366;" vertex="1" parent="1">
          <mxGeometry x="20" y="940" width="62.5" height="40" as="geometry" />
        </mxCell>
        <mxCell id="Da_kQKlGXjnIWnQLu5Gy-52" value="&lt;font&gt;&lt;b&gt;&lt;span style=&quot;font-size: 15px&quot;&gt;E&lt;/span&gt;&lt;span style=&quot;font-size: 12.5px&quot;&gt;&lt;sub&gt;2&lt;/sub&gt;&lt;/span&gt;&lt;/b&gt;&lt;/font&gt;" style="rounded=1;whiteSpace=wrap;html=1;fillColor=#d5e8d4;strokeColor=#82b366;" vertex="1" parent="1">
          <mxGeometry x="120" y="940" width="62.5" height="40" as="geometry" />
        </mxCell>
        <mxCell id="Da_kQKlGXjnIWnQLu5Gy-54" value="&lt;font&gt;&lt;b&gt;&lt;span style=&quot;font-size: 15px&quot;&gt;E&lt;/span&gt;&lt;span style=&quot;font-size: 12.5px&quot;&gt;&lt;sub&gt;N&lt;/sub&gt;&lt;/span&gt;&lt;/b&gt;&lt;/font&gt;" style="rounded=1;whiteSpace=wrap;html=1;fillColor=#d5e8d4;strokeColor=#82b366;" vertex="1" parent="1">
          <mxGeometry x="336.25" y="940" width="62.5" height="40" as="geometry" />
        </mxCell>
        <mxCell id="Da_kQKlGXjnIWnQLu5Gy-55" value="&lt;font size=&quot;1&quot;&gt;&lt;b style=&quot;font-size: 20px&quot;&gt;...&lt;/b&gt;&lt;/font&gt;" style="text;html=1;align=center;verticalAlign=middle;resizable=0;points=[];autosize=1;strokeColor=none;" vertex="1" parent="1">
          <mxGeometry x="250" y="940" width="30" height="20" as="geometry" />
        </mxCell>
        <mxCell id="Da_kQKlGXjnIWnQLu5Gy-57" value="&lt;font&gt;&lt;b&gt;&lt;span style=&quot;font-size: 15px&quot;&gt;T&lt;sub&gt;1&lt;/sub&gt;&lt;/span&gt;&lt;/b&gt;&lt;/font&gt;" style="rounded=1;whiteSpace=wrap;html=1;fillColor=#f8cecc;strokeColor=#b85450;" vertex="1" parent="1">
          <mxGeometry x="20" y="620" width="62.5" height="40" as="geometry" />
        </mxCell>
        <mxCell id="Da_kQKlGXjnIWnQLu5Gy-58" value="&lt;font&gt;&lt;b&gt;&lt;span style=&quot;font-size: 15px&quot;&gt;T&lt;/span&gt;&lt;span style=&quot;font-size: 12.5px&quot;&gt;&lt;sub&gt;2&lt;/sub&gt;&lt;/span&gt;&lt;/b&gt;&lt;/font&gt;" style="rounded=1;whiteSpace=wrap;html=1;fillColor=#f8cecc;strokeColor=#b85450;" vertex="1" parent="1">
          <mxGeometry x="120" y="620" width="62.5" height="40" as="geometry" />
        </mxCell>
        <mxCell id="Da_kQKlGXjnIWnQLu5Gy-59" value="&lt;font&gt;&lt;b&gt;&lt;span style=&quot;font-size: 15px&quot;&gt;T&lt;/span&gt;&lt;span style=&quot;font-size: 12.5px&quot;&gt;&lt;sub&gt;N&lt;/sub&gt;&lt;/span&gt;&lt;/b&gt;&lt;/font&gt;" style="rounded=1;whiteSpace=wrap;html=1;fillColor=#f8cecc;strokeColor=#b85450;" vertex="1" parent="1">
          <mxGeometry x="336.25" y="620" width="62.5" height="40" as="geometry" />
        </mxCell>
        <mxCell id="Da_kQKlGXjnIWnQLu5Gy-62" value="&lt;font size=&quot;1&quot;&gt;&lt;b style=&quot;font-size: 20px&quot;&gt;...&lt;/b&gt;&lt;/font&gt;" style="text;html=1;align=center;verticalAlign=middle;resizable=0;points=[];autosize=1;strokeColor=none;" vertex="1" parent="1">
          <mxGeometry x="250" y="630" width="30" height="20" as="geometry" />
        </mxCell>
      </root>
    </mxGraphModel>
  </diagram>
</mxfile>
